<?xml version="1.0" encoding="utf-8"?>
<!-- Generator: Adobe Illustrator 19.2.1, SVG Export Plug-In . SVG Version: 6.00 Build 0)  -->
<svg version="1.1" id="Layer_1" xmlns="http://www.w3.org/2000/svg" xmlns:xlink="http://www.w3.org/1999/xlink" x="0px" y="0px"
	 viewBox="0 0 75 75" style="enable-background:new 0 0 75 75;" xml:space="preserve">
<style type="text/css">
	.st0{fill:#6E4635;}
	.st1{fill:#009DE0;}
	.st2{fill:#FFFFFF;}
</style>
<g>
	<g>
		<path class="st0" d="M19.2,6c0.1,0,0.4,0,0.6,0.2l38.6,38.5c0.3,0.3,0.3,0.9,0,1.2l-3.7,3.7c-0.2,0.2-0.5,0.2-0.6,0.2
			c-0.1,0-0.4,0-0.6-0.2L14.8,11.2c-0.2-0.2-0.2-0.5-0.2-0.6c0-0.1,0-0.4,0.2-0.6l3.7-3.7C18.8,6.1,19,6,19.2,6 M19.2,4
			c-0.7,0-1.5,0.3-2,0.8l-3.7,3.7c-1.1,1.1-1.1,2.9,0,4L52,51.1c0.6,0.6,1.3,0.8,2,0.8c0.7,0,1.5-0.3,2-0.8l3.7-3.7
			c1.1-1.1,1.1-2.9,0-4L21.2,4.9C20.6,4.3,19.9,4,19.2,4L19.2,4z"/>
	</g>
	<g>
		<rect x="47.9" y="43" transform="matrix(0.7071 -0.7071 0.7071 0.7071 -16.1187 48.0959)" class="st0" width="4.1" height="1"/>
	</g>
	<g>
		<path class="st0" d="M65.5,57.8c-0.2,0-0.3,0-0.5-0.1l-11-5.8c-0.3-0.1-0.5-0.4-0.5-0.7s0.1-0.6,0.3-0.9l5-5
			c0.2-0.2,0.5-0.3,0.8-0.3c0.3,0,0.6,0.2,0.7,0.5l6,10.8c0.2,0.4,0.1,0.9-0.2,1.2C66.1,57.7,65.8,57.8,65.5,57.8z M56.2,50.8
			l6.9,3.6l-3.7-6.7L56.2,50.8z"/>
	</g>
	<g>
		<rect x="62.3" y="53.4" transform="matrix(0.7061 -0.7081 0.7081 0.7061 -19.9954 60.6834)" class="st1" width="1.6" height="2"/>
	</g>
	<g>
		<rect x="45.6" y="41.5" transform="matrix(0.7071 -0.7071 0.7071 0.7071 -15.7545 45.9695)" class="st0" width="4.1" height="1"/>
	</g>
	<g>
		<rect x="43.1" y="40.6" transform="matrix(0.7071 -0.7071 0.7071 0.7071 -15.967 43.6038)" class="st0" width="3.2" height="1"/>
	</g>
	<g>
		<rect x="14.7" y="7.3" transform="matrix(0.7065 -0.7077 0.7077 0.7065 -1.858 16.4149)" class="st0" width="8.3" height="6.3"/>
	</g>
	<g>
		<rect x="13.2" y="9.2" transform="matrix(0.7066 -0.7076 0.7076 0.7066 -1.6709 16.3385)" class="st2" width="11.3" height="2"/>
	</g>
</g>
</svg>
